<?xml version="1.0" standalone="no"?>
<!DOCTYPE svg PUBLIC "-//W3C//DTD SVG 20010904//EN"
 "http://www.w3.org/TR/2001/REC-SVG-20010904/DTD/svg10.dtd">
<svg version="1.0" xmlns="http://www.w3.org/2000/svg"
 width="210.000000pt" height="58.000000pt" viewBox="0 0 210.000000 58.000000"
 preserveAspectRatio="xMidYMid meet">

<g transform="translate(0.000000,58.000000) scale(0.100000,-0.100000)"
fill="#000000" stroke="none">
<path d="M77 495 l-57 -75 250 0 251 0 24 -25 c14 -13 25 -33 25 -44 0 -27 48
-81 87 -97 23 -10 84 -14 220 -14 207 0 229 -3 238 -32 15 -44 -3 -48 -240
-48 l-223 0 -51 -69 c-28 -38 -51 -71 -51 -75 0 -11 506 -7 562 5 108 23 154
67 164 156 7 66 -17 111 -76 141 -41 21 -57 22 -240 22 -142 0 -200 3 -211 13
-9 6 -21 32 -28 57 -18 60 -72 113 -141 136 -44 14 -96 18 -250 21 l-195 3
-58 -75z"/>
<path d="M750 563 c-8 -2 -21 -6 -28 -9 -10 -3 -7 -12 11 -34 14 -17 31 -46
38 -65 l13 -35 514 0 c512 0 543 -2 564 -34 4 -6 8 -21 8 -32 0 -46 -17 -49
-294 -54 l-261 -5 -3 -143 -3 -143 83 3 83 3 3 73 3 72 127 0 127 0 60 -75 60
-74 108 -1 c59 0 107 3 107 8 0 4 -36 43 -80 87 -44 44 -80 82 -80 85 0 3 18
13 40 23 79 36 114 149 73 234 -22 47 -87 87 -175 107 -60 14 -147 16 -577 15
-278 0 -513 -3 -521 -6z"/>
<path d="M22 292 c-9 -7 -12 -42 -10 -143 l3 -134 85 0 85 0 3 73 3 72 177 0
c161 0 180 2 211 21 l34 20 -36 30 c-20 16 -39 38 -42 49 -6 19 -16 20 -253
20 -136 0 -253 -4 -260 -8z"/>
</g>
</svg>
